<?xml version="1.0" encoding="UTF-8"?>
<svg xmlns="http://www.w3.org/2000/svg" xmlns:xlink="http://www.w3.org/1999/xlink" width="48pt" height="48pt" viewBox="0 0 48 48" version="1.1">
<g id="surface614122">
<path style=" stroke:none;fill-rule:nonzero;fill:rgb(29.803922%,68.627451%,31.372549%);fill-opacity:1;" d="M 44.398438 7.199219 L 25.199219 7.199219 L 25.199219 40.800781 L 44.398438 40.800781 C 45.0625 40.800781 45.601562 40.261719 45.601562 39.601562 L 45.601562 8.398438 C 45.601562 7.738281 45.0625 7.199219 44.398438 7.199219 Z M 44.398438 7.199219 "/>
<path style=" stroke:none;fill-rule:nonzero;fill:rgb(100%,100%,100%);fill-opacity:1;" d="M 33.601562 13.199219 L 42 13.199219 L 42 16.800781 L 33.601562 16.800781 Z M 33.601562 25.199219 L 42 25.199219 L 42 28.800781 L 33.601562 28.800781 Z M 33.601562 31.199219 L 42 31.199219 L 42 34.800781 L 33.601562 34.800781 Z M 33.601562 19.199219 L 42 19.199219 L 42 22.800781 L 33.601562 22.800781 Z M 25.199219 13.199219 L 31.199219 13.199219 L 31.199219 16.800781 L 25.199219 16.800781 Z M 25.199219 25.199219 L 31.199219 25.199219 L 31.199219 28.800781 L 25.199219 28.800781 Z M 25.199219 31.199219 L 31.199219 31.199219 L 31.199219 34.800781 L 25.199219 34.800781 Z M 25.199219 19.199219 L 31.199219 19.199219 L 31.199219 22.800781 L 25.199219 22.800781 Z M 25.199219 19.199219 "/>
<path style=" stroke:none;fill-rule:nonzero;fill:rgb(18.039216%,49.019608%,19.607843%);fill-opacity:1;" d="M 27.601562 45.601562 L 2.398438 40.800781 L 2.398438 7.199219 L 27.601562 2.398438 Z M 27.601562 45.601562 "/>
<path style=" stroke:none;fill-rule:nonzero;fill:rgb(100%,100%,100%);fill-opacity:1;" d="M 18.15625 32.398438 L 15.261719 26.925781 C 15.152344 26.722656 15.039062 26.347656 14.921875 25.800781 L 14.875 25.800781 C 14.820312 26.058594 14.691406 26.449219 14.488281 26.976562 L 11.582031 32.398438 L 7.074219 32.398438 L 12.429688 24 L 7.527344 15.601562 L 12.132812 15.601562 L 14.535156 20.636719 C 14.722656 21.03125 14.890625 21.503906 15.039062 22.050781 L 15.085938 22.050781 C 15.179688 21.726562 15.355469 21.234375 15.613281 20.585938 L 18.285156 15.601562 L 22.503906 15.601562 L 17.464844 23.925781 L 22.644531 32.398438 Z M 18.15625 32.398438 "/>
</g>
</svg>
