<svg height="512" viewBox="0 0 60 60" width="512" xmlns="http://www.w3.org/2000/svg"><g id="005---Passport-&amp;-ID" fill="none"><g id="Icons" transform="translate(1 1)"><path id="Shape" d="m42 6v30h-13c-1.6568542 0-3 1.3431458-3 3v16c0 1.6568542 1.3431458 3 3 3h-27c-1.10320187-.0032948-1.9967052-.8967981-2-2v-54c.0032948-1.10320187.89679813-1.9967052 2-2h34c3.3137085 0 6 2.6862915 6 6z" fill="#e8edfc"/><path id="Shape" d="m29 36h-3c-1.6568542 0-3 1.3431458-3 3v16c0 1.6568542 1.3431458 3 3 3h3c-1.6568542 0-3-1.3431458-3-3v-16c0-1.6568542 1.3431458-3 3-3z" fill="#cad9fc"/><path id="Shape" d="m36 0h-3c3.3137085 0 6 2.6862915 6 6v30h3v-30c0-3.3137085-2.6862915-6-6-6z" fill="#cad9fc"/><path id="Shape" d="m26 48h-17c-1.10320187-.0032948-1.9967052-.8967981-2-2v-2c.0032948-1.1032019.89679813-1.9967052 2-2h17" fill="#a4c2f7"/><rect id="Rectangle-path" fill="#e8edfc" height="22" rx="3" width="32" x="26" y="36"/><path id="Shape" d="m55 36h-3c1.6568542 0 3 1.3431458 3 3v16c0 1.6568542-1.3431458 3-3 3h3c1.6568542 0 3-1.3431458 3-3v-16c0-1.6568542-1.3431458-3-3-3z" fill="#e8edfc"/><circle id="Oval" cx="34" cy="43" fill="#a4c2f7" r="3"/><path id="Shape" d="m37 54h-6c-.5522847 0-1-.4477153-1-1v-3c0-2.209139 1.790861-4 4-4s4 1.790861 4 4v3c0 .5522847-.4477153 1-1 1z" fill="#a4c2f7"/><path id="Shape" d="m34 46c-.5146843.0021695-1.0240724.1040471-1.5.3 1.5082666.61012 2.4967043 2.0730078 2.5 3.7v3c0 .5522847-.4477153 1-1 1h3c.5522847 0 1-.4477153 1-1v-3c0-2.209139-1.790861-4-4-4z" fill="#7facfa"/></g><g id="Layer_2" fill="#fff" transform="translate(0 1)"><path id="Rectangle-path" d="m0 48h2v8h-2z"/><path id="Shape" d="m3 58h3c-1.10320187-.0032948-1.9967052-.8967981-2-2v-54c.0032948-1.10320187.89679813-1.9967052 2-2h-3c-1.10320187.0032948-1.9967052.89679813-2 2v54c.0032948 1.1032019.89679813 1.9967052 2 2z"/></g><g id="Layer_3" fill="#428dff"><path id="Shape" d="m1.02 54c-.55228475.0027614-1.00223858-.4427153-1.005-.995s.44271525-1.0022386.995-1.005h.01c.55228475 0 1 .4477153 1 1s-.44771525 1-1 1z"/><path id="Shape" d="m3 60h53c2.209139 0 4-1.790861 4-4v-16c0-2.209139-1.790861-4-4-4h-12v-29c-.0044086-3.86416566-3.1358343-6.99559136-7-7h-34c-1.65685425 0-3 1.34314575-3 3v46c0 .5522847.44771525 1 1 1s1-.4477153 1-1v-46c0-.55228475.44771525-1 1-1h34c2.7600532.00330612 4.9966939 2.23994685 5 5v29h-12c-2.209139 0-4 1.790861-4 4v2h-16c-1.65685425 0-3 1.3431458-3 3v2c0 1.6568542 1.34314575 3 3 3h16v6c.0041446.7042532.1960759 1.3946535.556 2h-23.556c-.55228475 0-1-.4477153-1-1s-.44771525-1-1-1-1 .4477153-1 1c0 1.6568542 1.34314575 3 3 3zm7-12c-.55228475 0-1-.4477153-1-1v-2c0-.5522847.44771525-1 1-1h16v4zm18 8v-16c0-1.1045695.8954305-2 2-2h26c1.1045695 0 2 .8954305 2 2v16c0 1.1045695-.8954305 2-2 2h-26c-1.1045695 0-2-.8954305-2-2z"/><path id="Shape" d="m8.5 27.5c2.4878095 5.1971468 7.7380966 8.504718 13.5 8.504718s11.0121905-3.3075712 13.5-8.504718c.0346293-.0562631.0634444-.1159035.086-.178 1.8854034-4.0003107 1.8854034-8.6336893 0-12.634-.0225556-.0620965-.0513707-.1217369-.086-.178-2.4878095-5.1971468-7.7380966-8.50471797-13.5-8.50471797s-11.0121905 3.30757117-13.5 8.50471797c-.03462932.0562631-.06344436.1159035-.086.178-1.88540342 4.0003107-1.88540342 8.6336893 0 12.634.02255564.0620965.05137068.1217369.086.178zm1.5-11.5h4.445c-.2387628 1.3211527-.3798117 2.6581087-.422 4h-4.972c.100477-1.3754902.42087799-2.7259686.949-4zm24 10h-4.448c.2387628-1.3211527.3798117-2.6581087.422-4h4.975c-.100477 1.3754902-.420878 2.7259686-.949 4zm-13 2v5.79c-1.57-.63-3.084-2.7-4.027-5.79zm-4.527-2c-.2557043-1.319262-.405515-2.6568574-.448-4h4.975v4zm6.527 7.79v-5.79h4.027c-.943 3.088-2.457 5.16-4.027 5.79zm0-7.79v-4h4.975c-.042485 1.3431426-.1922957 2.680738-.448 4zm11.949-6h-4.975c-.0421883-1.3418913-.1832372-2.6788473-.422-4h4.448c.528122 1.2740314.848523 2.6245098.949 4zm-6.974 0h-4.975v-4h4.527c.2557043 1.319262.405515 2.6568574.448 4zm-4.975-6v-5.79c1.57.63 3.084 2.7 4.027 5.79zm-2-5.79v5.79h-4.027c.943-3.088 2.457-5.16 4.027-5.79zm0 7.79v4h-4.975c.042485-1.3431426.1922957-2.680738.448-4zm-6.974 6c.0421883 1.3418913.1832372 2.6788473.422 4h-4.448c-.52915142-1.2738594-.85056667-2.6243437-.952-4zm-2.963 6h3.837c.466107 1.8146826 1.2491401 3.5327514 2.313 5.075-2.5290178-1.0090309-4.6793122-2.7834608-6.15-5.075zm15.724 5.075c1.0638599-1.5422486 1.846893-3.2603174 2.313-5.075h3.837c-1.4706878 2.2915392-3.6209822 4.0659691-6.15 5.075zm6.15-19.075h-3.837c-.466107-1.8146826-1.2491401-3.5327514-2.313-5.075 2.5290178 1.0090309 4.6793122 2.7834608 6.15 5.075zm-15.724-5.075c-1.0638599 1.5422486-1.846893 3.2603174-2.313 5.075h-3.837c1.4706878-2.2915392 3.6209822-4.0659691 6.15-5.075z"/><path id="Shape" d="m40 54v-3c-.000727-1.6626784-.8279124-3.2162279-2.207-4.145 1.1646341-1.1359939 1.5252003-2.8641988.9119739-4.3711189s-2.0780582-2.4922971-3.7049739-2.4922971-3.0917475.985377-3.7049739 2.4922971-.2526602 3.235125.9119739 4.3711189c-1.3790876.9287721-2.206273 2.4823216-2.207 4.145v3c0 1.1045695.8954305 2 2 2h6c1.1045695 0 2-.8954305 2-2zm-7-10c0-1.1045695.8954305-2 2-2s2 .8954305 2 2-.8954305 2-2 2-2-.8954305-2-2zm-1 7c0-1.6568542 1.3431458-3 3-3s3 1.3431458 3 3v3h-6z"/><path id="Shape" d="m43 43h11c.5522847 0 1-.4477153 1-1s-.4477153-1-1-1h-11c-.5522847 0-1 .4477153-1 1s.4477153 1 1 1z"/><path id="Shape" d="m43 47h11c.5522847 0 1-.4477153 1-1s-.4477153-1-1-1h-11c-.5522847 0-1 .4477153-1 1s.4477153 1 1 1z"/><path id="Shape" d="m43 51h11c.5522847 0 1-.4477153 1-1s-.4477153-1-1-1h-11c-.5522847 0-1 .4477153-1 1s.4477153 1 1 1z"/><path id="Shape" d="m43 55h5c.5522847 0 1-.4477153 1-1s-.4477153-1-1-1h-5c-.5522847 0-1 .4477153-1 1s.4477153 1 1 1z"/></g></g></svg>