<svg id="Layer_1" enable-background="new 0 0 256 256" height="512" viewBox="0 0 256 256" width="512" xmlns="http://www.w3.org/2000/svg"><path d="m182.862 128h-156.605c-3.506 0-6.349-2.842-6.349-6.349v-94.703c0-7.013 5.685-12.698 12.698-12.698h143.907c7.013 0 12.698 5.685 12.698 12.698v94.703c-.001 3.507-2.843 6.349-6.349 6.349z" fill="#e0ebfc"/><path d="m176.513 241.75h-143.907c-7.013 0-12.698-5.685-12.698-12.698v-94.703c0-3.506 2.842-6.349 6.349-6.349h156.605c3.506 0 6.349 2.842 6.349 6.349v94.703c-.001 7.013-5.685 12.698-12.698 12.698z" fill="#a4c9ff"/><path d="m182.862 128h-156.605c-3.506 0-6.349-2.842-6.349-6.349v-94.703c0-7.013 5.685-12.698 12.698-12.698h143.907c7.013 0 12.698 5.685 12.698 12.698v94.703c-.001 3.507-2.843 6.349-6.349 6.349z" style="fill:none;stroke:#3762cc;stroke-width:4;stroke-linecap:round;stroke-linejoin:round;stroke-miterlimit:10"/><path d="m176.513 241.75h-143.907c-7.013 0-12.698-5.685-12.698-12.698v-94.703c0-3.506 2.842-6.349 6.349-6.349h156.605c3.506 0 6.349 2.842 6.349 6.349v94.703c-.001 7.013-5.685 12.698-12.698 12.698z" style="fill:none;stroke:#3762cc;stroke-width:4;stroke-linecap:round;stroke-linejoin:round;stroke-miterlimit:10"/><path d="m31.548 205.376v-53.965c0-2.338 1.895-4.233 4.233-4.233h41.267c2.338 0 4.233 1.895 4.233 4.233v53.965c0 2.338-1.895 4.233-4.233 4.233h-41.268c-2.337 0-4.232-1.895-4.232-4.233z" fill="#e0ebfc"/><path d="m172.942 162.438h-72.483c-2.557 0-4.629-2.073-4.629-4.629 0-2.557 2.073-4.629 4.629-4.629h72.483c2.557 0 4.629 2.073 4.629 4.629 0 2.556-2.073 4.629-4.629 4.629z" fill="#e0ebfc"/><path d="m177.571 176.78h-81.742c-1.657 0-3-1.343-3-3s1.343-3 3-3h81.742c1.657 0 3 1.343 3 3s-1.343 3-3 3z" fill="#e0ebfc"/><path d="m177.571 191.595h-81.742c-1.657 0-3-1.343-3-3s1.343-3 3-3h81.742c1.657 0 3 1.343 3 3s-1.343 3-3 3z" fill="#e0ebfc"/><path d="m177.571 206.408h-81.742c-1.657 0-3-1.343-3-3s1.343-3 3-3h81.742c1.657 0 3 1.343 3 3s-1.343 3-3 3z" fill="#e0ebfc"/><path d="m177.571 225.571h-146.023c-1.657 0-3-1.343-3-3s1.343-3 3-3h146.023c1.657 0 3 1.343 3 3s-1.343 3-3 3z" fill="#e0ebfc"/><g fill="#a4c9ff"><path d="m147.881 116.73h-68.125c-3.437 0-6.233-2.796-6.233-6.232v-19.579c0-3.437 2.796-6.232 6.233-6.232h68.125c3.437 0 6.232 2.796 6.232 6.232v19.579c0 3.437-2.796 6.232-6.232 6.232zm-68.125-28.043c-1.231 0-2.233 1.001-2.233 2.232v19.579c0 1.231 1.001 2.232 2.233 2.232h68.125c1.231 0 2.232-1.001 2.232-2.232v-19.579c0-1.231-1.001-2.232-2.232-2.232z"/><path d="m142.021 110.871h-56.406c-3.437 0-6.233-2.796-6.233-6.233v-7.859c0-3.437 2.796-6.232 6.233-6.232h56.406c3.437 0 6.232 2.796 6.232 6.232v7.859c.001 3.437-2.795 6.233-6.232 6.233zm-56.406-16.325c-1.231 0-2.233 1.001-2.233 2.232v7.859c0 1.231 1.001 2.233 2.233 2.233h56.406c1.231 0 2.232-1.002 2.232-2.233v-7.859c0-1.231-1.001-2.232-2.232-2.232z"/><path d="m45.269 75.233 10.579 5.237-5.286-10.644c-.279-.558-.466-.953-.559-1.186-.094-.233-.126-.496-.097-.789.03-.292.184-.578.463-.857.204-.204.445-.341.72-.415.277-.072.549-.073.817-.004.269.07.488.191.66.362.119.119.23.261.334.43s.198.343.281.523.17.364.262.551l4.851 10.564c.193.397.372.779.535 1.146.164.368.279.719.346 1.054.067.336.053.678-.04 1.03-.094.352-.301.688-.623 1.01s-.658.531-1.006.627c-.348.097-.694.11-1.037.04s-.698-.185-1.062-.346c-.365-.161-.745-.337-1.143-.531l-10.45-4.835c-.188-.091-.374-.178-.559-.262-.185-.083-.372-.185-.563-.306-.19-.12-.339-.235-.446-.342-.274-.274-.414-.633-.419-1.078-.006-.445.158-.834.491-1.167.408-.408.821-.571 1.239-.491s.988.309 1.712.679z"/><path d="m64.127 74.717-9.292-9.292c-.483-.483-.735-.955-.756-1.416-.022-.461.142-.866.491-1.215.359-.359.769-.531 1.231-.515.461.016.936.268 1.424.756l9.292 9.292c.489.489.741.964.76 1.428s-.151.877-.51 1.236c-.344.344-.749.504-1.216.483-.467-.022-.941-.273-1.424-.757z"/><path d="m75.865 58.41c.714.714 1.171 1.538 1.372 2.474.202.937.108 1.919-.277 2.949-.387 1.03-1.065 2.03-2.036 3.001-1.164 1.164-2.344 1.904-3.54 2.22-.852.22-1.711.233-2.574.04s-1.545-.54-2.043-1.038c-.29-.29-.438-.638-.443-1.046s.148-.767.459-1.078c.252-.252.545-.385.881-.398.335-.013.723.076 1.163.27.525.225 1.002.377 1.428.455.426.077.879.04 1.359-.113.481-.153.978-.487 1.493-1.002.708-.708 1.118-1.448 1.23-2.221.113-.772-.077-1.405-.571-1.899-.391-.391-.828-.589-1.311-.595-.483-.005-.978.117-1.485.365-.506.25-1.148.619-1.926 1.107-1.046.649-1.987 1.126-2.824 1.432-.836.306-1.652.397-2.445.274-.794-.124-1.531-.526-2.212-1.207-.649-.649-1.049-1.403-1.198-2.26-.151-.858-.026-1.758.374-2.7.399-.941 1.052-1.865 1.959-2.771.724-.724 1.441-1.26 2.148-1.609s1.385-.548 2.032-.599c.646-.052 1.213.006 1.701.173.488.166.888.405 1.199.716.284.284.44.642.466 1.07.027.43-.11.794-.41 1.095-.273.273-.55.413-.829.418s-.657-.064-1.134-.208c-.66-.231-1.265-.321-1.815-.27s-1.157.409-1.822 1.074c-.617.617-.978 1.25-1.086 1.899-.107.649.03 1.164.411 1.545.236.236.504.375.804.418s.625.013.974-.088c.349-.102.674-.233.974-.394s.784-.439 1.448-.837c.82-.51 1.594-.94 2.321-1.291.726-.352 1.413-.582 2.059-.692.647-.11 1.281-.066 1.903.133.619.195 1.228.592 1.823 1.188z"/><path d="m87.644 51.04-2.044-.917-4.795 4.795.95 2.076c.37.81.58 1.396.632 1.758.051.362-.101.72-.455 1.074-.3.3-.676.456-1.127.466-.451.011-.815-.123-1.095-.403-.16-.16-.3-.354-.418-.579-.118-.226-.268-.552-.451-.982l-4.642-10.676c-.133-.306-.295-.673-.482-1.103-.188-.429-.315-.814-.382-1.154s-.053-.685.044-1.034c.097-.348.309-.686.636-1.014.332-.332.673-.547 1.021-.644.349-.096.691-.113 1.027-.052.335.061.664.159.985.293s.745.319 1.271.555l10.692 4.53c.821.338 1.362.638 1.625.901.274.274.41.639.41 1.095s-.16.845-.482 1.167c-.188.188-.382.315-.584.382-.201.067-.405.088-.611.065-.206-.024-.481-.103-.824-.237s-.644-.254-.901-.362zm-8.005 1.456 3.524-3.524-6.646-3.089z"/><path d="m47.918 103.617c-1.382 0-2.682-.539-3.659-1.517l-7.424-7.425c-.781-.781-.781-2.047 0-2.828.78-.781 2.048-.781 2.828 0l7.425 7.425c.445.445 1.216.445 1.662 0l2.007-2.007c.78-.781 2.048-.781 2.828 0 .781.781.781 2.047 0 2.828l-2.007 2.007c-.978.979-2.278 1.517-3.66 1.517zm17.212-15.897c-.512 0-1.023-.195-1.414-.586-.781-.781-.781-2.047 0-2.828l12.959-12.959c.78-.781 2.047-.781 2.828 0s.781 2.047 0 2.828l-12.959 12.959c-.39.39-.903.586-1.414.586zm-36.338-6.382c-.512 0-1.023-.194-1.414-.585-.781-.781-.781-2.047 0-2.828l.026-.026 12.934-12.933c.78-.781 2.048-.781 2.828 0 .781.781.781 2.047 0 2.828l-12.948 12.947c-.012.012-.024.024-.036.036-.388.374-.889.561-1.39.561zm62.257-19.537c-.512 0-1.023-.195-1.414-.586-.781-.781-.781-2.047 0-2.828l12.945-12.944c.014-.015.028-.029.038-.039.78-.781 2.048-.781 2.828 0 .781.781.781 2.047 0 2.828l-1.414-1.414 1.413 1.416-12.982 12.981c-.39.39-.903.586-1.414.586zm-36.338-6.38c-.512 0-1.023-.195-1.414-.586-.781-.781-.781-2.047 0-2.828l12.959-12.96c.78-.781 2.047-.781 2.828 0s.781 2.047 0 2.828l-12.959 12.96c-.39.391-.903.586-1.414.586zm39.841-20.525c-.512 0-1.024-.195-1.414-.586l-7.414-7.414c-.444-.443-1.218-.443-1.661 0l-2.019 2.02c-.781.781-2.047.781-2.829 0-.781-.78-.781-2.047 0-2.828l2.019-2.02c.978-.978 2.277-1.516 3.659-1.516 1.381 0 2.681.538 3.658 1.515l7.414 7.415c.781.781.781 2.047 0 2.828-.39.391-.902.586-1.413.586z"/><path d="m132.939 72.242c-12.234 0-22.188-9.953-22.188-22.188s9.954-22.188 22.188-22.188 22.188 9.953 22.188 22.188-9.953 22.188-22.188 22.188zm0-40.375c-10.029 0-18.188 8.159-18.188 18.188s8.159 18.188 18.188 18.188 18.188-8.159 18.188-18.188-8.159-18.188-18.188-18.188z"/><path d="m132.939 66.103c-8.849 0-16.048-7.199-16.048-16.048s7.199-16.048 16.048-16.048 16.048 7.199 16.048 16.048-7.199 16.048-16.048 16.048zm0-28.096c-6.644 0-12.048 5.404-12.048 12.048s5.405 12.048 12.048 12.048c6.644 0 12.048-5.404 12.048-12.048s-5.404-12.048-12.048-12.048z"/><path d="m158.286 48.671c-4.256 0-6.486-1.188-8.454-2.234-1.779-.947-3.316-1.766-6.574-1.766-1.104 0-2-.896-2-2s.896-2 2-2c4.256 0 6.486 1.188 8.454 2.234 1.779.947 3.316 1.766 6.574 1.766s4.795-.818 6.575-1.766c1.968-1.047 4.198-2.234 8.454-2.234 1.104 0 2 .896 2 2s-.896 2-2 2c-3.258 0-4.795.818-6.574 1.766-1.968 1.046-4.199 2.234-8.455 2.234z"/><path d="m158.286 55.85c-4.256 0-6.486-1.188-8.454-2.234-1.779-.947-3.316-1.766-6.574-1.766-1.104 0-2-.896-2-2s.896-2 2-2c4.256 0 6.486 1.188 8.454 2.234 1.779.947 3.316 1.766 6.574 1.766s4.795-.818 6.575-1.766c1.968-1.047 4.198-2.234 8.454-2.234 1.104 0 2 .896 2 2s-.896 2-2 2c-3.258 0-4.795.818-6.574 1.766-1.968 1.046-4.199 2.234-8.455 2.234z"/><path d="m158.286 63.027c-4.256 0-6.486-1.188-8.454-2.234-1.779-.947-3.316-1.766-6.574-1.766-1.104 0-2-.896-2-2s.896-2 2-2c4.256 0 6.486 1.188 8.454 2.234 1.779.947 3.316 1.766 6.574 1.766s4.795-.818 6.575-1.766c1.968-1.047 4.198-2.234 8.454-2.234 1.104 0 2 .896 2 2s-.896 2-2 2c-3.258 0-4.795.818-6.574 1.766-1.968 1.047-4.199 2.234-8.455 2.234z"/></g><path d="m189.121 86.431h17.433v18.401h-17.433z" fill="#f9cfcf"/><path d="m211.88 86.431h-28.086c-2.139 0-3.874-1.734-3.874-3.874v-1.453c0-2.139 1.734-3.874 3.874-3.874h28.086c2.139 0 3.874 1.734 3.874 3.874v1.453c0 2.139-1.734 3.874-3.874 3.874z" fill="#a4c9ff"/><path d="m218.175 115.162h-40.676v-5.488c0-2.674 2.168-4.842 4.842-4.842h30.991c2.674 0 4.842 2.168 4.842 4.842v5.488z" fill="#a4c9ff"/><path d="m236.092 134.37h-76.509v-12.429c0-3.744 3.035-6.779 6.779-6.779h62.951c3.744 0 6.779 3.035 6.779 6.779z" fill="#6bdddd"/><path d="m159.583 134.37h76.509v.221c0 3.744-3.035 6.779-6.779 6.779h-62.951c-3.744 0-6.779-3.035-6.779-6.779z" fill="#4671c6"/><path d="m159.583 134.37h76.509v.221c0 3.744-3.035 6.779-6.779 6.779h-62.951c-3.744 0-6.779-3.035-6.779-6.779z" style="fill:none;stroke:#3762cc;stroke-width:4;stroke-linecap:round;stroke-linejoin:round;stroke-miterlimit:10"/><path d="m183.794 77.23h28.086c.194 0 .379.029.565.057v-20.885c0-6.418-5.203-11.622-11.622-11.622h-5.972c-6.418 0-11.622 5.203-11.622 11.622v20.885c.186-.027.372-.057.565-.057z" fill="#4671c6"/><path d="m189.121 86.431h17.433v18.401h-17.433z" style="fill:none;stroke:#3762cc;stroke-width:4;stroke-linecap:round;stroke-linejoin:round;stroke-miterlimit:10"/><path d="m218.175 115.162h-40.676v-5.488c0-2.674 2.168-4.842 4.842-4.842h30.991c2.674 0 4.842 2.168 4.842 4.842v5.488z" style="fill:none;stroke:#3762cc;stroke-width:4;stroke-linecap:round;stroke-linejoin:round;stroke-miterlimit:10"/><path d="m236.092 134.37h-76.509v-12.429c0-3.744 3.035-6.779 6.779-6.779h62.951c3.744 0 6.779 3.035 6.779 6.779z" style="fill:none;stroke:#3762cc;stroke-width:4;stroke-linecap:round;stroke-linejoin:round;stroke-miterlimit:10"/><path d="m183.794 77.23h28.086c.194 0 .379.029.565.057v-20.885c0-6.418-5.203-11.622-11.622-11.622h-5.972c-6.418 0-11.622 5.203-11.622 11.622v20.885c.186-.027.372-.057.565-.057z" style="fill:none;stroke:#3762cc;stroke-width:4;stroke-linecap:round;stroke-linejoin:round;stroke-miterlimit:10"/><path d="m211.88 86.431h-28.086c-2.139 0-3.874-1.734-3.874-3.874v-1.453c0-2.139 1.734-3.874 3.874-3.874h28.086c2.139 0 3.874 1.734 3.874 3.874v1.453c0 2.139-1.734 3.874-3.874 3.874z" style="fill:none;stroke:#3762cc;stroke-width:4;stroke-linecap:round;stroke-linejoin:round;stroke-miterlimit:10"/><path d="m64.858 196.242h-2.227c-.005 0-.01-.001-.014-.001l-.001.001h-14.646c-3.869 0-7.006 3.137-7.006 7.006v3.515.998 1.848h30.901v-1.848-.998-3.515c0-3.869-3.137-7.006-7.007-7.006z" fill="#f9a7a7"/><path d="m70.239 176.29c-.029 0-.058.004-.087.004v-1.286c0-7.519-6.151-13.614-13.738-13.614-7.587 0-13.738 6.095-13.738 13.614v1.286c-.029-.001-.058-.004-.087-.004-2.315 0-4.191 1.86-4.191 4.154s1.877 4.154 4.191 4.154c.152 0 .302-.009.45-.025 1.418 6.023 6.866 10.511 13.375 10.511 6.509 0 11.958-4.488 13.375-10.511.148.016.298.025.45.025 2.315 0 4.191-1.86 4.191-4.154s-1.876-4.154-4.191-4.154z" fill="#f9cfcf"/><path d="m70.239 176.29c-.029 0-.058.004-.087.004v-1.286c0-7.519-6.151-13.614-13.738-13.614-7.587 0-13.738 6.095-13.738 13.614v1.286c-.029-.001-.058-.004-.087-.004-2.315 0-4.191 1.86-4.191 4.154s1.877 4.154 4.191 4.154c.152 0 .302-.009.45-.025 1.418 6.023 6.866 10.511 13.375 10.511 6.509 0 11.958-4.488 13.375-10.511.148.016.298.025.45.025 2.315 0 4.191-1.86 4.191-4.154s-1.876-4.154-4.191-4.154z" style="fill:none;stroke:#3762cc;stroke-width:4;stroke-linecap:round;stroke-linejoin:round;stroke-miterlimit:10"/><path d="m56.414 195.084c-2.245 0-4.363-.534-6.234-1.48v2.379c0 3.442 2.79 6.232 6.232 6.232s6.232-2.79 6.232-6.232v-2.377c-1.869.944-3.987 1.478-6.23 1.478z" fill="#f9cfcf"/><path d="m64.858 196.242h-2.221c.004-.086.007-.173.007-.26v-2.377c-1.87.945-3.987 1.479-6.23 1.479-2.245 0-4.363-.534-6.234-1.48v2.379c0 .087.003.173.007.26h-2.217c-3.869 0-7.006 3.137-7.006 7.006v3.515.998 1.848h30.901v-1.848-.998-3.515c0-3.87-3.137-7.007-7.007-7.007z" style="fill:none;stroke:#3762cc;stroke-width:4;stroke-linecap:round;stroke-linejoin:round;stroke-miterlimit:10"/><path d="m52.576 174.082h-13.718v-4.763c0-7.396 5.995-13.391 13.391-13.391h3.852c1.947 0 3.526 1.578 3.526 3.526v7.577c0 3.894-3.157 7.051-7.051 7.051z" fill="#4671c6"/><path d="m73.751 173.61h-7.983c-3.392 0-6.142-2.75-6.142-6.142v-8.319c0-1.779 1.443-3.222 3.222-3.222 6.021 0 10.903 4.881 10.903 10.903z" fill="#4671c6"/><path d="m40.302 174.082v2.884c.658-.426 1.442-.675 2.287-.675.029 0 .058.004.087.004v-1.286c0-.311.012-.62.033-.926h-2.407z" fill="#4671c6"/><path d="m70.078 173.61c.047.46.074.926.074 1.398v1.286c.029-.001.058-.004.087-.004.843 0 1.626.249 2.283.673v-3.353z" fill="#4671c6"/><path d="m49.618 183.305c-.915 0-1.659-.744-1.659-1.658v-2.764c0-.914.744-1.658 1.659-1.658.914 0 1.658.744 1.658 1.658v2.764c0 .914-.744 1.658-1.658 1.658z" fill="#3762cc"/><path d="m63.207 183.305c-.915 0-1.659-.744-1.659-1.658v-2.764c0-.914.744-1.658 1.659-1.658.914 0 1.658.744 1.658 1.658v2.764c0 .914-.744 1.658-1.658 1.658z" fill="#3762cc"/><path d="m52.576 174.082h-13.718v-4.763c0-7.396 5.995-13.391 13.391-13.391h3.852c1.947 0 3.526 1.578 3.526 3.526v7.577c0 3.894-3.157 7.051-7.051 7.051z" style="fill:none;stroke:#3762cc;stroke-width:4;stroke-linecap:round;stroke-linejoin:round;stroke-miterlimit:10"/><path d="m73.751 173.61h-7.983c-3.392 0-6.142-2.75-6.142-6.142v-8.319c0-1.779 1.443-3.222 3.222-3.222 6.021 0 10.903 4.881 10.903 10.903z" style="fill:none;stroke:#3762cc;stroke-width:4;stroke-linecap:round;stroke-linejoin:round;stroke-miterlimit:10"/><path d="m40.302 174.082v2.884c.658-.426 1.442-.675 2.287-.675.029 0 .058.004.087.004v-1.286c0-.311.012-.62.033-.926h-2.407z" style="fill:none;stroke:#3762cc;stroke-width:4;stroke-linecap:round;stroke-linejoin:round;stroke-miterlimit:10"/><path d="m70.078 173.61c.047.46.074.926.074 1.398v1.286c.029-.001.058-.004.087-.004.843 0 1.626.249 2.283.673v-3.353z" style="fill:none;stroke:#3762cc;stroke-width:4;stroke-linecap:round;stroke-linejoin:round;stroke-miterlimit:10"/><path d="m58.779 186.139c0 .451-.193.889-.548 1.247-.298.301-.694.527-1.14.662-.299.091-.613.123-.926.123s-.627-.032-.926-.123c-.446-.136-.842-.362-1.14-.662-.356-.358-.548-.797-.548-1.247" style="fill:none;stroke:#3762cc;stroke-width:2;stroke-linecap:round;stroke-linejoin:round;stroke-miterlimit:10"/><path d="m31.548 205.376v-53.965c0-2.338 1.895-4.233 4.233-4.233h41.267c2.338 0 4.233 1.895 4.233 4.233v53.965c0 2.338-1.895 4.233-4.233 4.233h-41.268c-2.337 0-4.232-1.895-4.232-4.233z" style="fill:none;stroke:#3762cc;stroke-width:4;stroke-linecap:round;stroke-linejoin:round;stroke-miterlimit:10"/></svg>